<?xml version="1.0" encoding="UTF-8"?>
<svg id="cap" xmlns="http://www.w3.org/2000/svg" width="546.56" height="546.56" viewBox="0 0 546.56 546.56">
  <defs>
    <style>
      .cls-1 {
        fill: #161717;
      }
    </style>
  </defs>
  <g>
    <path class="cls-1" d="M144.52,293.97c-1.35.64-3.18,1.25-5.48,1.85-2.31.59-4.98,1.17-8.02,1.72l-7.11,1.37c.03.76.23,1.55.61,2.36.59,1.27,1.39,2.16,2.41,2.67,1.01.52,2.64,1.07,4.9,1.66l27.32,7.64c.77,1.18,1.82,3.18,3.13,5.98,2.71,5.79,4.57,11.87,5.58,18.25,1.01,6.38.49,12.37-1.55,17.97-2.05,5.61-6.17,9.88-12.38,12.81-6.03,2.85-11.41,3.26-16.15,1.25-4.74-2.01-8.88-6.83-12.44-14.42-1.78-3.8-3.02-7.97-3.71-12.5-.7-4.53-.68-9.07.05-13.61-.75-.42-1.6-1.24-2.54-2.44-.95-1.21-1.81-2.63-2.57-4.25-2.16-4.61-3.71-10.51-4.66-17.69l-4.46-34.52,17.25-4.01c4.92-1.22,8.1-2.17,9.54-2.85,1.35-.64,2.62-1.46,3.79-2.46h2.47s7.21,31.23,7.21,31.23c-.95.78-2.01,1.45-3.18,2ZM128.14,337.5c1.7,3.62,3.99,5.93,6.88,6.94,2.89,1.01,6.18.64,9.87-1.1,1.89-.89,3.3-1.7,4.23-2.41.93-.71,1.83-1.55,2.69-2.52l-.19-.41-25.46-7.19c.09,1.84.75,4.06,1.98,6.69Z"/>
    <path class="cls-1" d="M178.51,255.69l.11.94-13.22,20.33-1.48.7-15.66-15.14-.17-1.08,13.25-21.34,1.48-.7,15.7,16.28ZM202.82,317.8l.71,3.64-17.6,33.18c-3.09-1.19-5.48-2.6-7.17-4.23-1.69-1.63-3.27-3.98-4.71-7.06-1.19-2.53-2.78-6.86-4.77-12.99l-6.41-19.68c-.5-1.53-.9-2.62-1.19-3.25-.72-1.54-1.68-2.52-2.87-2.95l-1.5-4.26,21.33-30.13,2.95-.4,6.51,26.92c1.3,5.35,2.73,9.71,4.3,13.05,1.19,2.53,2.62,4.48,4.3,5.84,1.68,1.36,3.72,2.14,6.12,2.33Z"/>
    <path class="cls-1" d="M207.9,257.55l14.24,1.89,7.65-13.23,4.95-.35,14.42,36.77c3.44,8.76,5.79,18.23,7.04,28.41,1.25,10.18.71,19.47-1.62,27.86-2.33,8.39-7.01,14.25-14.03,17.57-4.5,2.13-8.74,2.58-12.71,1.37-3.98-1.21-7.02-4.09-9.14-8.61-2.54-5.43-2.47-12.42.23-20.99-7.23-2.99-12.34-7.7-15.35-14.12-3.64-7.78-4.2-19.06-1.68-33.85l3.58-21.58,2.43-1.15ZM213.63,292.3c1.53,3.26,3.39,5.72,5.6,7.38,2.21,1.67,5.1,3.26,8.67,4.77,1.36-2.96,2.02-5.9,1.97-8.81-.04-2.91-.53-6.18-1.47-9.83l-16.84-1.82c-.1,2.37.59,5.13,2.07,8.3ZM227.61,336.58c.98-.02,2.28-.41,3.9-1.18,4.32-2.04,6.93-5.15,7.83-9.33.9-4.18.02-9.57-2.62-16.16l-.13.06c-4.51,8.21-7.5,17.08-8.97,26.61Z"/>
    <path class="cls-1" d="M273.96,252.52l.54-.26c.86-6.37,2.2-12.48,4.03-18.31,1.83-5.84,3.69-10.47,5.6-13.92l1.55-.57c3.37,2.28,6.42,4.9,9.13,7.87,2.71,2.97,5.42,7.36,8.13,13.14,4.58,9.77,6.86,19.74,6.84,29.91-.01,10.17-2.88,19.59-8.6,28.26l-3.05-.88c.02-2.99-.67-7-2.09-12.02-1.42-5.02-3.46-10.38-6.13-16.08-1.06-2.26-2.37-4.46-3.92-6.6-1.55-2.14-3.11-3.83-4.69-5.08-1.14,2.97-1.3,8.32-.48,16.05.82,7.73,2.82,16.04,5.99,24.93l-19.06,15.97-.46-.28-12.09-36.38c-.58-1.71-1.26-3.38-2.02-5.01-1.61-3.44-2.99-5.8-4.14-7.08-1.15-1.28-2.5-2.16-4.04-2.65l-1.28-2.38,20.83-31.55,1.21-.24,8.2,23.14Z"/>
    <path class="cls-1" d="M339.67,230.92c-.58,5.8-.42,11.83.48,18.09.9,6.26,2.6,13.71,5.12,22.36l-17.43,14.87-2.34.28-25.1-70.84c-.21-.67-.58-1.6-1.14-2.78-1.61-3.44-3.87-5.68-6.78-6.74l-1.2-2.92,19.47-30.58,4.74-.09,16.69,53.93c2.54-9.82,4.43-16.76,5.66-20.82,1.23-4.06,2.83-8.21,4.8-12.46l2.62-.74c6.5,3.56,12.21,10.58,17.12,21.08,4.07,8.69,6.19,18.32,6.36,28.9.17,10.58-2.71,20.09-8.64,28.53l-2.85-.81c-.09-7.69-1.83-15.16-5.22-22.4-1.99-4.25-4.26-8.04-6.81-11.37-2.55-3.33-4.39-5.16-5.54-5.5Z"/>
    <path class="cls-1" d="M382.88,249.45c-3.63-2.48-6.57-6.12-8.82-10.91-.8-1.72-1.52-3.59-2.14-5.62-2.48-7.88-2.99-17.07-1.52-27.54,1.47-10.47,4.95-20.76,10.43-30.87l17.2.82,4.66-10.82,4.53.18c-.08,7.11.12,12.93.59,17.45.47,4.53,1.7,8.92,3.7,13.17,1.61,3.44,3.5,6.05,5.66,7.85,2.16,1.8,4.25,2.5,6.26,2.1l-1.11,35.99c-1.98.94-4.27.97-6.88.1-2.61-.87-5.11-2.47-7.53-4.81-2.41-2.34-4.36-5.09-5.85-8.26h-.33s-5.34,25.55-5.34,25.55c-5.37-.44-9.88-1.91-13.51-4.39ZM381.05,205.4c.27,1.64.83,3.36,1.68,5.17,1.4,2.99,3.54,5.21,6.42,6.66,2.88,1.46,5.78,1.55,8.7.28-1.48-5.04-2.33-9.89-2.53-14.55l-14.05-1.48c-.42.98-.5,2.28-.23,3.92Z"/>
  </g>
  <path class="cls-1" d="M544.59,257.51l-18.28-7.33-2.5-1.01c-21.78-8.72-27.61-36.82-11.11-53.49l12.78-12.89,2.97-3.01c1.9-1.92.66-5.16-2.02-5.35l-1.06-.07-21.27-1.43c-23.4-1.56-37.63-26.49-27.09-47.43l3.71-7.37,6.35-12.63c1.22-2.41-.96-5.11-3.57-4.46l-21.71,5.48c-22.74,5.74-43.97-13.57-40.42-36.74l3.27-21.31.12-.82c.41-2.66-2.49-4.57-4.78-3.14l-6.51,4.11h-.01l-12.18,7.66-.24.15c-2.11,1.32-4.27,2.37-6.49,3.15-13.3,4.78-27.95.24-36.47-10.27-3.43-4.23-5.87-9.41-6.84-15.34l-3.61-22.09c-.44-2.66-3.79-3.57-5.52-1.5l-14.34,17.18c-15.02,18.01-43.54,14.87-54.3-5.96l-10.25-19.91c-1.24-2.38-4.71-2.22-5.71.28l-8.34,20.78c-8.72,21.77-36.82,27.6-53.47,11.1l-15.92-15.75c-1.91-1.89-5.16-.66-5.34,2.03l-1.5,22.33c-.22,3.24-.89,6.31-1.94,9.16-2.75,7.55-8.15,13.57-14.83,17.28-2.12,1.2-4.38,2.15-6.73,2.82-4.58,1.36-9.49,1.73-14.41.93-3.2-.52-6.41-1.54-9.53-3.11l-19.99-10.07c-2.41-1.2-5.12.98-4.47,3.58l5.49,21.71c5.74,22.74-13.57,43.97-36.75,40.42l-22.13-3.39c-2.66-.41-4.57,2.5-3.14,4.77l11.92,18.96c12.48,19.85.69,46.01-22.46,49.8l-5.61.92-16.48,2.68c-2.66.45-3.57,3.79-1.5,5.51l17.18,14.35c.38.31.74.62,1.08.94,14.42,13.08,13.94,35.26.6,47.93-2.19,2.11-4.75,3.94-7.64,5.43l-19.9,10.26c-2.39,1.24-2.23,4.71.27,5.71l20.78,8.32c2.52,1.02,4.83,2.28,6.9,3.77,15.92,11.31,18.78,34.99,4.2,49.72l-3.53,3.57-12.21,12.34c-1.9,1.91-.67,5.17,2.02,5.34l10.41.7,11.92.8c23.4,1.58,37.63,26.49,27.08,47.44l-10.05,20c-1.22,2.4.96,5.12,3.56,4.46l21.72-5.48c22.74-5.74,43.97,13.57,40.42,36.75l-1.41,9.19-1.98,12.94c-.41,2.66,2.49,4.56,4.77,3.14l18.95-11.92c3.77-2.37,7.75-3.86,11.78-4.57h.01l4.02-.05,6.36-.09c13.39,1.99,25.18,12.21,27.63,27.16l3.61,22.09c.43,2.66,3.78,3.58,5.51,1.51l14.34-17.19c13.03-15.62,36.22-15.33,49.16-1.38,1.98,2.13,3.72,4.59,5.15,7.35l10.25,19.89c1.24,2.4,4.71,2.23,5.71-.27l8.33-20.77c8.73-21.78,36.81-27.61,53.48-11.11l15.92,15.75c1.9,1.9,5.16.66,5.33-2.02l1.5-22.33c.59-8.63,4.33-16.01,9.89-21.35.27-.26.54-.52.82-.76,4.33-3.91,9.66-6.63,15.39-7.82,2.19-.47,4.46-.7,6.74-.68,4.86,0,9.83,1.11,14.6,3.52l1.35.68,8.88,4.47,9.77,4.91c2.4,1.21,5.12-.96,4.46-3.58l-.37-1.5-1.45-5.72-3.66-14.48c-5.74-22.74,13.57-43.97,36.75-40.42l22.13,3.39c2.66.41,4.57-2.5,3.13-4.78l-11.91-18.94c-12.49-19.85-.69-46.02,22.46-49.8l14.95-2.45,7.14-1.16c2.65-.44,3.57-3.8,1.5-5.52l-8.82-7.36-8.37-6.98c-18.01-15.02-14.86-43.54,5.97-54.3l1.63-.84,18.26-9.41c2.4-1.24,2.24-4.72-.26-5.71ZM273.28,478.2c-113.18,0-204.92-91.75-204.92-204.92s91.74-204.93,204.92-204.93,204.93,91.75,204.93,204.93-91.75,204.92-204.93,204.92Z"/>
</svg>