<?xml version="1.0" encoding="UTF-8"?>
<svg id="finger-bottom" xmlns="http://www.w3.org/2000/svg" width="1920" height="1010.54" viewBox="0 0 1920 1010.54">
  <defs>
    <style>
      .cls-1 {
        fill: #161717;
      }
    </style>
  </defs>
  <path class="cls-1" d="M1515.37,929.3l-250.73,19.54c1.31-15.22,5.88-27.36,13.87-36.92.64-.77,1.31-1.52,2-2.26,10.97-11.78,27.59-19.46,50.68-23.44l84.45-6.82c39.94-.56,66.12,5.84,82,20.01.66.59,1.3,1.19,1.93,1.81,7.11,7.01,12.32,16.16,15.8,28.08Z"/>
  <path class="cls-1" d="M1437.6,681.54l-20.97,1.46c-13.31,1.08-25.99,2.52-38.08,4.3-47.98,7.05-86.5,19.35-116.38,35.62-56.66,30.86-82.25,76.01-82.25,126.77,0,6.69.37,12.87,1.43,19.6,1.78,11.28,5.49,24.07,12.61,43.26.19.39.38.78.57,1.17,6.36,12.95,15.09,26.45,26.31,38.53l28.67-2.23c1-15.43,4.81-28.46,11.55-39.44,1.78-2.9,3.76-5.66,5.95-8.28,13.34-15.97,33.61-26.08,61.99-30.92l.66-.08,85.28-6.89h.25c46.01-.63,76.19,7.67,94.92,26.13,2.49,2.46,4.79,5.1,6.9,7.95,6.02,8.1,10.52,17.84,13.61,29.62l391.79-30.53-1.07-31.6,5.93-241.34s-199.52,55.91-447.73,55.91c-14.45,0-28.32.35-41.62,1.03"/>
</svg>