<?xml version="1.0" encoding="UTF-8"?>
<svg id="finger-texts" xmlns="http://www.w3.org/2000/svg" width="1920" height="1133.79" viewBox="0 0 1920 1133.79">
  <defs>
    <style>
      .cls-1 {
        fill: #151515;
      }
    </style>
  </defs>
  <path class="cls-1" d="M61.04-11.54l.61,450.52c-19.1,17.39-30.89,42.67-30.18,70.7,1.26,48.91,41.11,88.69,90.03,89.87,39,.93,72.69-22.34,87.11-55.85,4.2,0,7.42.04,11.86.04,14.15,32.84,46.8,55.83,84.83,55.83s70.67-22.99,84.82-55.83h11.89c14.14,32.83,46.8,55.83,84.82,55.83s70.67-22.99,84.82-55.83h11.88c14.14,32.83,46.8,55.83,84.82,55.83s70.68-22.99,84.82-55.83c4.69,0,7.15-.04,11.86-.04,14.41,33.49,48.06,56.75,87.04,55.85,49.6-1.15,89.76-42.01,90.12-91.62.18-24.25-9.01-46.34-24.14-62.91l3.39-456.56h-.91"/>
</svg>