<?xml version="1.0" encoding="UTF-8"?>
<svg id="cap" xmlns="http://www.w3.org/2000/svg" width="546.56" height="546.56" viewBox="0 0 546.56 546.56">
  <defs>
    <style>
      .cls-1 {
        fill: #161717;
      }
    </style>
  </defs>
  <path class="cls-1" d="M544.59,257.51l-18.28-7.33-2.5-1.01c-21.78-8.72-27.61-36.82-11.11-53.49l12.78-12.89,2.97-3.01c1.9-1.92.66-5.16-2.02-5.35l-1.06-.07-21.27-1.43c-23.4-1.56-37.63-26.49-27.09-47.43l3.71-7.37,6.35-12.63c1.22-2.41-.96-5.11-3.57-4.46l-21.71,5.48c-22.74,5.74-43.97-13.57-40.42-36.74l3.27-21.31.12-.82c.41-2.66-2.49-4.57-4.78-3.14l-6.51,4.11h-.01l-12.18,7.66-.24.15c-2.11,1.32-4.27,2.37-6.49,3.15-13.3,4.78-27.95.24-36.47-10.27-3.43-4.23-5.87-9.41-6.84-15.34l-3.61-22.09c-.44-2.66-3.79-3.57-5.52-1.5l-14.34,17.18c-15.02,18.01-43.54,14.87-54.3-5.96l-10.25-19.91c-1.24-2.38-4.71-2.22-5.71.28l-8.34,20.78c-8.72,21.77-36.82,27.6-53.47,11.1l-15.92-15.75c-1.91-1.89-5.16-.66-5.34,2.03l-1.5,22.33c-.22,3.24-.89,6.31-1.94,9.16-2.75,7.55-8.15,13.57-14.83,17.28-2.12,1.2-4.38,2.15-6.73,2.82-4.58,1.36-9.49,1.73-14.41.93-3.2-.52-6.41-1.54-9.53-3.11l-19.99-10.07c-2.41-1.2-5.12.98-4.47,3.58l5.49,21.71c5.74,22.74-13.57,43.97-36.75,40.42l-22.13-3.39c-2.66-.41-4.57,2.5-3.14,4.77l11.92,18.96c12.48,19.85.69,46.01-22.46,49.8l-5.61.92-16.48,2.68c-2.66.45-3.57,3.79-1.5,5.51l17.18,14.35c.38.31.74.62,1.08.94,14.42,13.08,13.94,35.26.6,47.93-2.19,2.11-4.75,3.94-7.64,5.43l-19.9,10.26c-2.39,1.24-2.23,4.71.27,5.71l20.78,8.32c2.52,1.02,4.83,2.28,6.9,3.77,15.92,11.31,18.78,34.99,4.2,49.72l-3.53,3.57-12.21,12.34c-1.9,1.91-.67,5.17,2.02,5.34l10.41.7,11.92.8c23.4,1.58,37.63,26.49,27.08,47.44l-10.05,20c-1.22,2.4.96,5.12,3.56,4.46l21.72-5.48c22.74-5.74,43.97,13.57,40.42,36.75l-1.41,9.19-1.98,12.94c-.41,2.66,2.49,4.56,4.77,3.14l18.95-11.92c3.77-2.37,7.75-3.86,11.78-4.57h.01l4.02-.05,6.36-.09c13.39,1.99,25.18,12.21,27.63,27.16l3.61,22.09c.43,2.66,3.78,3.58,5.51,1.51l14.34-17.19c13.03-15.62,36.22-15.33,49.16-1.38,1.98,2.13,3.72,4.59,5.15,7.35l10.25,19.89c1.24,2.4,4.71,2.23,5.71-.27l8.33-20.77c8.73-21.78,36.81-27.61,53.48-11.11l15.92,15.75c1.9,1.9,5.16.66,5.33-2.02l1.5-22.33c.59-8.63,4.33-16.01,9.89-21.35.27-.26.54-.52.82-.76,4.33-3.91,9.66-6.63,15.39-7.82,2.19-.47,4.46-.7,6.74-.68,4.86,0,9.83,1.11,14.6,3.52l1.35.68,8.88,4.47,9.77,4.91c2.4,1.21,5.12-.96,4.46-3.58l-.37-1.5-1.45-5.72-3.66-14.48c-5.74-22.74,13.57-43.97,36.75-40.42l22.13,3.39c2.66.41,4.57-2.5,3.13-4.78l-11.91-18.94c-12.49-19.85-.69-46.02,22.46-49.8l14.95-2.45,7.14-1.16c2.65-.44,3.57-3.8,1.5-5.52l-8.82-7.36-8.37-6.98c-18.01-15.02-14.86-43.54,5.97-54.3l1.63-.84,18.26-9.41c2.4-1.24,2.24-4.72-.26-5.71ZM273.28,478.2c-113.18,0-204.92-91.75-204.92-204.92s91.74-204.93,204.92-204.93,204.93,91.75,204.93,204.93-91.75,204.92-204.93,204.92Z"/>
</svg>