<?xml version="1.0" encoding="UTF-8"?>
<svg id="finger-top" xmlns="http://www.w3.org/2000/svg" width="1920" height="1010.54" viewBox="0 0 1920 1010.54">
  <defs>
    <style>
      .cls-1 {
        fill: #151515;
      }
    </style>
  </defs>
  <path class="cls-1" d="M1110.78,97.28c-4.85-9.3-6.71-20.68-7.3-30.36h342.62c-1.62,10.48-5.59,20.64-11.29,28.48-9.72,13.36-23.89,20.13-42.13,20.13h-250.76c-14.55,0-24.74-5.97-31.14-18.25Z"/>
  <path class="cls-1" d="M1923.57,368.96l-4.83-2.01c-172.69,0-329.47-23.27-459.05-43.51-50.8-7.94-97.42-15.41-139.18-20.84-1.24-.15-2.47-.31-3.69-.47-20.86-2.67-40.48-4.8-58.78-6.21-15.72-1.2-30.46-1.87-44.17-1.87-11.27,0-21.98-.47-32.15-1.37-.64-.05-1.27-.11-1.91-.17-25.19-2.38-47.03-7.42-65.81-14.55-69.05-26.23-96.65-80.78-96.65-135.33,0-65.4,55.89-74.31,71.11-75.52,2.19,40.44,21.4,63.42,53.46,63.42h250.76c29.03,0,45.53-14.31,54.26-26.31,7.6-10.45,12.61-23.63,14.32-37.3h457.48l4.83,302.04Z"/>
</svg>