<?xml version="1.0" encoding="UTF-8"?>
<svg id="Layer_1" data-name="Layer 1" xmlns="http://www.w3.org/2000/svg" width="170.65" height="259.05" viewBox="0 0 170.65 259.05">
  <defs>
    <style>
      .cls-1 {
        fill: none;
      }

      .cls-2 {
        fill: #f0f;
      }

      .cls-3 {
        fill: #231f20;
        font-family: shmuelv013-Regular, 'shmuel v013';
        font-size: 68.12px;
        font-variation-settings: 'wght' 500;
      }
    </style>
  </defs>
  <rect class="cls-1" x="-921.19" y="-576.5" width="1386.07" height="1029.24"/>
  <rect class="cls-1" x="-1064.64" y="-367.47" width="1386.07" height="1029.24"/>
  <g>
    <path class="cls-2" d="M84.35,254.8c-14.16-.04-26.92-2.28-38.28-6.71-11.36-4.44-20.29-10.5-26.76-18.17-6.48-7.68-9.71-16.15-9.68-25.44l-4.53,1.03.4-158.07,5.91,1.76c.02-8.82,3.29-16.58,9.81-23.3,6.51-6.71,15.4-11.91,26.67-15.6,11.26-3.68,23.63-5.51,37.09-5.48,13.46.03,25.81,1.93,37.07,5.66,11.25,3.74,20.11,8.99,26.59,15.73,6.48,6.75,9.71,14.53,9.69,23.35l5.92-1.73-.4,158.07-4.52-1.06c-.02,9.29-3.3,17.75-9.81,25.39-6.52,7.64-15.47,13.66-26.85,18.04-11.39,4.38-24.16,6.55-38.31,6.52h0Z"/>
    <text class="cls-3" transform="translate(140.12 142.81) rotate(-.36)"><tspan x="0" y="0"> </tspan></text>
  </g>
</svg>