<?xml version="1.0" encoding="UTF-8"?>
<svg id="Layer_1" data-name="Layer 1" xmlns="http://www.w3.org/2000/svg" width="175.07" height="438.27" viewBox="0 0 175.07 438.27">
  <defs>
    <style>
      .cls-1 {
        fill: #f0f;
      }
    </style>
  </defs>
  <path class="cls-1" d="M45.94,437.21c-16.21-.07-27.71-3.78-34.46-11.14-6.77-7.35-10.11-19.13-10.04-35.34l.68-147.46c.1-21.44,1.74-36.98,4.92-46.65,3.18-9.66,8.98-19.69,17.39-30.12.06-13.59,1.41-24.04,4.07-31.36,2.64-7.3,6.86-14.34,12.65-21.12,5.79-8.33,10-16.16,12.66-23.47,2.64-7.3,4.01-18.28,4.07-32.93l-4.68-6.3,7.18-25.85-7.06-.03c.03-6.27,3.7-11.09,11.05-14.46,7.33-3.36,15.44-5.03,24.34-4.99,8.89.04,16.98,1.78,24.29,5.21,7.3,3.44,10.94,8.29,10.91,14.56l-7.06-.03,6.94,25.92-4.73,6.25c-.07,14.65,1.18,25.63,3.77,32.96,2.58,7.34,6.72,15.2,12.44,23.59,5.72,6.83,9.86,13.91,12.45,21.24,2.58,7.34,3.84,17.8,3.78,31.39,8.31,10.5,14.02,20.59,17.12,30.28,3.09,9.7,4.59,25.26,4.49,46.69l-.68,147.46c-.07,16.21-3.54,27.96-10.36,35.25-6.84,7.3-18.36,10.9-34.56,10.82l-40.79-.19-40.79-.19h0ZM10.86,389.2c43.9,6.48,94.61,6.71,152.17.7l.69-151.38c-47.04-4.92-97.77-5.15-152.17-.7l-.69,151.38h0Z"/>
</svg>