<?xml version="1.0" encoding="UTF-8"?>
<svg id="Layer_1" data-name="Layer 1" xmlns="http://www.w3.org/2000/svg" width="159.12" height="519" viewBox="0 0 159.12 519">
  <defs>
    <style>
      .cls-1 {
        fill: #f0f;
      }
    </style>
  </defs>
  <path class="cls-1" d="M49.54,512.79c-24.61-.03-37.11-11.07-37.51-33.13l-4.94-136.17c-.42-10.6-.61-26.51-.59-47.72.03-26.72,15.35-74.85,45.97-144.39l5.22-119.62-3.81-4.46,5.1-12.08h-5.09c0-4.67,2.55-8.17,7.65-10.5,5.09-2.32,11.03-3.49,17.82-3.48,6.78,0,12.72,1.19,17.81,3.52,5.09,2.34,7.63,5.84,7.62,10.51h-5.09s5.08,12.09,5.08,12.09l-3.82,4.45,4.96,119.63c30.47,69.61,45.69,117.76,45.66,144.49l-.02,15.91c0,5.09.09,10.29.3,15.59.2,5.31.09,10.72-.34,16.23l-5.24,136.16c-.45,22.06-13.19,33.07-38.21,33.05l-29.27-.03-29.27-.03h0ZM16.5,465.03c41.56,6.41,83.35,6.45,125.35.13l4.58-116.44c-19.95,2.52-42.11,3.77-66.5,3.75-24.4-.03-46.99-1.32-67.76-3.89l4.33,116.45h0Z"/>
</svg>