<?xml version="1.0" encoding="UTF-8"?>
<svg id="Layer_1" data-name="Layer 1" xmlns="http://www.w3.org/2000/svg" width="162.09" height="169.15" viewBox="0 0 162.09 169.15">
  <defs>
    <style>
      .cls-1 {
        fill: none;
      }

      .cls-2 {
        fill: #f0f;
      }
    </style>
  </defs>
  <path class="cls-2" d="M138.5,74.54c-5.95-.09-11.6-.34-16.97-.67l-3.93-3.17c-1.69-1.36-4.16-1.1-5.53.59l-1.43,1.77c-6.06-.52-11.75-1.11-17.15-1.66-10.95-1.13-21.29-2.2-31.47-2.35-16.36-.25-31.45,5.17-38.73,8.29l-5.5-56.65,127.19,1.92-6.49,51.94ZM136.95,86.96c-.24-.59-.63-1.14-1.17-1.57l-9.59-7.74c3.82.19,7.77.32,11.87.39l-1.12,8.92ZM133.7,112.95l-63.14-.95,23.26-1.45c2.17-.13,3.81-2,3.68-4.16l-.83-13.42c.21.77.65,1.49,1.32,2.03l18.18,14.68c1.69,1.36,4.16,1.1,5.52-.59l14.68-18.18s.07-.09.1-.13l-2.77,22.17ZM44.54,111.61c.43-.15.84-.38,1.21-.69l17.95-14.96c1.67-1.39,1.89-3.87.5-5.53l-14.21-17.06c3.85-.56,7.88-.88,11.97-.82,10.03.15,20.3,1.21,31.16,2.34,4.71.49,9.65,1,14.85,1.47l-10.59,13.12c-.46.58-.74,1.24-.84,1.93l-.52-8.33c-.14-2.17-2-3.81-4.16-3.68l-23.32,1.45c-2.17.14-3.81,2-3.68,4.17l1.45,23.32c.12,1.94,1.62,3.45,3.48,3.66l-25.26-.38ZM26.59,111.34l-1.93-19.84c.15.34.34.66.59.96l14.96,17.96c.45.53,1,.92,1.61,1.15l-15.23-.23ZM23.65,81.03c3.32-1.45,8.92-3.67,15.77-5.48l-13.66,11.38c-.7.58-1.15,1.36-1.33,2.19l-.79-8.1ZM154.28,14.31c-.98-1.01-2.21-1.77-3.69-1.79L12.49,10.44c-1.49-.02-2.74.45-3.74,1.68-1.01.98-1.52,2.46-1.3,3.95l9.64,100.58,3.23,32.78c.21,2.48,2.41,4.5,4.89,4.54l108.6,1.64c2.48.04,4.74-1.91,5.03-4.39l3.96-32.67,12.67-100.25c.05-.25.07-.5.07-.74.02-1.17-.45-2.2-1.25-3.24"/>
  <rect class="cls-1" x="-1372.23" y="-829.61" width="1386.07" height="1029.24"/>
</svg>