<?xml version="1.0" encoding="UTF-8"?>
<svg id="Layer_1" data-name="Layer 1" xmlns="http://www.w3.org/2000/svg" width="159.16" height="249.98" viewBox="0 0 159.16 249.98">
  <defs>
    <style>
      .cls-1 {
        font-family: shmuelv013-Regular, 'shmuel v013';
        font-size: 68.12px;
        font-variation-settings: 'wght' 500;
      }
    </style>
  </defs>
  <path d="M82.23,249.97c-14.16.3-26.97-1.64-38.43-5.8-11.47-4.16-20.53-10.01-27.19-17.53-6.66-7.52-10.09-15.92-10.29-25.2l-4.5,1.14L-1.53,44.54l5.95,1.61c-.19-8.82,2.9-16.66,9.25-23.53,6.35-6.87,15.12-12.28,26.3-16.23C51.15,2.45,63.47.33,76.93.04c13.46-.29,25.85,1.31,37.19,4.78,11.33,3.48,20.32,8.51,26.96,15.1,6.64,6.6,10.05,14.3,10.24,23.11l5.88-1.87,3.35,158.03-4.55-.95c.2,9.28-2.88,17.82-9.21,25.62-6.34,7.8-15.14,14.02-26.42,18.67-11.28,4.65-24,7.13-38.15,7.43h0Z"/>
  <text class="cls-1" transform="translate(135.32 136.68) rotate(-1.72)"><tspan x="0" y="0"> </tspan></text>
</svg>