<?xml version="1.0" encoding="UTF-8"?>
<svg id="Layer_1" data-name="Layer 1" xmlns="http://www.w3.org/2000/svg" width="1920" height="2256.6" viewBox="0 0 1920 2256.6">
  <defs>
    <style>
      .cls-1 {
        fill: #ed2991;
      }
    </style>
  </defs>
  <path class="cls-1" d="M1571.97,556.06c-13.08-17.44-43.61-34.88-82.85-34.88-37.06,0-67.59,17.44-80.67,34.88,13.08,17.44,43.61,32.7,80.67,32.7,39.24,0,69.77-15.26,82.85-32.7ZM1807.44,342.39c0,56.69-8.72,100.29-30.52,187.5l8.72,4.36c4.36-50.15,21.8-78.49,39.24-78.49,13.08,0,26.16,13.08,26.16,37.06,0,82.85-30.52,165.7-98.11,207.13l-10.9,78.49-109.01,120.34,61.05,195.8c28.34,30.52,50.15,117.73,50.15,170.06l74.13,50.15,2.18,37.06c0,8.72,130.82,47.97,198.4,74.13l67.59,839.4h-510.18s-78.49-156.98-78.49-156.98l91.57-540.71-63.23-207.13c17.44-28.34,28.34-52.33,28.34-106.83,0-54.51-34.88-122.1-67.59-167.88-30.52,19.62-65.41,39.24-115.55,39.24-21.8,0-43.61-4.36-69.77-8.72l-8.72-17.44c23.98-32.7,78.49-148.26,91.57-215.85h-58.87c47.97-104.65,58.87-289.98,58.87-366.29,0-74.13,15.26-117.73,50.15-156.98,0-122.1,56.69-252.91,170.06-252.91,146.08,0,202.77,111.19,202.77,235.47Z"/>
</svg>