<?xml version="1.0" encoding="UTF-8"?>
<svg id="Layer_1" data-name="Layer 1" xmlns="http://www.w3.org/2000/svg" width="1920" height="2256.6" viewBox="0 0 1920 2256.6">
  <defs>
    <style>
      .cls-1 {
        fill: #ed2991;
      }
    </style>
  </defs>
  <path class="cls-1" d="M430.88,588.76c37.06,0,67.59-15.26,80.67-32.7-13.08-17.44-43.61-34.88-80.67-34.88-39.24,0-69.77,17.44-82.85,34.88,13.08,17.44,43.61,32.7,82.85,32.7ZM315.33,106.92c113.37,0,170.06,130.82,170.06,252.91,34.88,39.24,50.15,82.85,50.15,156.98s10.9,261.63,58.87,366.29h-58.87c13.08,67.59,67.59,183.14,91.57,215.85l-8.72,17.44c-26.16,4.36-47.97,8.72-69.77,8.72-50.15,0-85.03-19.62-115.55-39.24-32.7,45.79-67.59,113.37-67.59,167.88s10.9,78.49,28.34,106.83l-63.23,207.13,91.57,540.71-78.49,156.98H-166.51l67.59-839.4c67.59-26.16,198.4-65.41,198.4-74.13l2.18-37.06,74.13-50.15c0-52.33,21.8-139.54,50.15-170.06l61.05-195.8-109.01-120.34-10.9-78.49c-67.59-41.43-98.11-124.28-98.11-207.13,0-23.98,13.08-37.06,26.16-37.06,17.44,0,34.88,28.34,39.24,78.49l8.72-4.36c-21.8-87.21-30.52-130.82-30.52-187.5,0-124.28,56.69-235.47,202.77-235.47Z"/>
</svg>